<?xml version="1.0" standalone="no"?>
<!DOCTYPE svg PUBLIC "-//W3C//DTD SVG 20010904//EN"
 "http://www.w3.org/TR/2001/REC-SVG-20010904/DTD/svg10.dtd">
<svg version="1.0" xmlns="http://www.w3.org/2000/svg"
 width="633.000000pt" height="633.000000pt" viewBox="0 0 633.000000 633.000000"
 preserveAspectRatio="xMidYMid meet">
<metadata>
Created by potrace 1.11, written by Peter Selinger 2001-2013
</metadata>
<g transform="translate(0.000000,633.000000) scale(0.100000,-0.100000)"
fill="#000000" stroke="none">
<path d="M1359 4496 c0 -6 0 -59 0 -118 l0 -108 -214 0 -215 0 -1 -407 c-1
-499 -5 -599 -24 -688 -3 -11 -7 -31 -9 -45 -7 -37 -14 -69 -21 -93 -6 -20
-11 -34 -42 -107 -8 -18 -11 98 -11 411 0 240 -2 441 -5 446 -3 5 -64 8 -136
8 -72 0 -131 1 -131 4 0 2 9 36 21 75 12 38 31 115 44 171 l22 100 114 1 c63
1 116 2 119 3 7 1 4 211 -3 217 -4 4 -393 7 -608 5 l-46 -1 1 -112 1 -113 97
0 c53 0 99 -3 102 -6 8 -7 -16 -113 -51 -229 -45 -151 -129 -342 -211 -480
l-21 -35 30 -80 c17 -44 36 -93 43 -110 l13 -30 34 49 c19 26 39 56 46 65 10
13 12 -44 13 -275 l0 -291 94 1 c93 1 95 1 100 27 l5 26 115 -1 c64 -1 116 -3
116 -7 0 -3 -13 -23 -30 -46 l-30 -40 93 -62 c51 -33 96 -61 99 -61 3 0 25 29
47 65 23 36 43 65 45 65 3 0 24 -33 47 -74 l42 -75 68 34 c101 51 224 126 314
190 51 37 83 54 91 49 35 -26 191 -131 209 -140 11 -6 49 -28 83 -48 35 -20
68 -36 72 -36 5 0 25 -10 45 -21 20 -12 37 -20 39 -18 1 2 29 52 60 112 l57
107 -28 11 c-135 50 -303 136 -369 188 l-23 18 25 34 c63 84 139 240 198 408
23 63 27 91 27 184 0 60 -2 112 -5 114 -2 3 -79 5 -170 5 l-166 0 0 154 0 154
30 1 c17 0 57 0 90 0 33 0 66 0 73 0 9 -1 1 -27 -25 -81 -21 -44 -38 -82 -38
-84 0 -4 53 -21 156 -50 l51 -14 28 62 c16 33 40 86 54 116 23 49 26 68 27
168 l0 112 -223 0 -223 0 0 120 0 120 -110 -1 c-71 -2 -110 -6 -111 -13z m-12
-455 c8 -1 11 -46 12 -155 l0 -154 -104 0 -105 -1 0 154 0 154 48 3 c39 3 86
2 149 -1z m-717 -773 l0 -288 -64 0 -64 0 0 283 c1 155 2 285 4 288 2 4 31 6
64 5 l60 -1 0 -287z m600 193 c-76 -38 -89 -38 -84 2 1 12 3 25 3 30 1 4 36 7
79 6 l77 0 -75 -38z m445 22 c-4 -10 -20 -53 -35 -95 -34 -90 -80 -183 -107
-217 l-19 -24 -29 49 c-26 44 -49 88 -76 149 -5 11 -20 50 -34 88 l-25 67 166
0 c154 0 166 -1 159 -17z m-515 -104 c0 -37 97 -246 154 -332 l45 -68 -92 -60
c-71 -47 -226 -129 -242 -129 -2 0 14 44 36 98 21 53 41 113 44 132 3 19 8 42
10 50 13 44 28 198 28 287 1 23 4 40 9 37 4 -3 8 -10 8 -15z"/>
<path d="M2495 4333 l1 -173 -118 0 -118 0 0 -120 0 -120 118 0 117 0 0 -164
c0 -161 -3 -177 -28 -183 -7 -1 -70 -22 -142 -47 -89 -30 -129 -49 -127 -58 2
-7 13 -56 24 -108 11 -52 24 -98 27 -103 4 -4 59 11 123 33 63 22 117 40 119
40 3 0 4 -105 4 -232 -1 -290 1 -283 -100 -275 l-73 7 13 -53 c7 -28 19 -81
25 -117 l13 -66 109 -1 c116 -2 146 5 190 45 53 49 58 84 58 446 l0 331 110
40 c106 37 110 40 106 65 -6 27 -24 142 -29 177 -2 12 -6 25 -9 28 -3 3 -42
-8 -87 -25 -45 -16 -84 -30 -87 -30 -2 0 -4 56 -4 125 l0 125 108 0 108 0 0
120 0 120 -108 0 -108 0 0 173 0 172 -118 1 -118 0 1 -173z"/>
<path d="M3723 4449 c-100 -20 -206 -40 -235 -44 -29 -3 -60 -8 -68 -10 -8 -2
-40 -7 -70 -10 -30 -3 -66 -8 -80 -10 -14 -2 -50 -6 -80 -9 -147 -15 -175 -18
-177 -20 -1 0 -4 -237 -7 -526 -6 -623 -2 -543 -27 -665 -31 -154 -112 -304
-231 -432 l-30 -31 111 -66 c61 -36 113 -66 115 -66 14 0 141 192 179 271 74
152 101 272 113 494 7 144 11 209 13 215 2 7 289 6 296 -1 3 -3 6 -215 6 -471
l0 -466 113 0 c62 0 117 3 122 6 6 4 9 196 9 471 l0 465 143 0 142 0 0 125 0
126 -415 0 c-228 0 -415 2 -416 5 -1 7 -1 247 0 290 l1 36 148 18 c81 10 156
20 167 21 11 2 40 7 65 10 25 4 101 18 170 32 69 14 138 27 153 30 16 3 31 11
34 18 2 7 -5 44 -16 82 -11 37 -25 87 -31 111 -6 23 -16 41 -23 41 -7 -1 -94
-19 -194 -40z"/>
<path d="M4560 4450 l-55 -5 0 -310 c0 -170 3 -312 6 -315 6 -4 1339 -5 1374
-1 7 1 10 110 10 316 0 273 -2 315 -15 315 -120 4 -1280 4 -1320 0z m1076
-317 l0 -103 -55 0 c-82 -1 -751 -1 -786 0 l-30 0 1 103 c1 56 2 103 3 105 0
1 196 1 434 0 l432 -3 1 -102z"/>
<path d="M4280 3590 l0 -108 148 0 c81 0 152 -1 158 -1 7 -1 1 -46 -18 -128
-24 -109 -32 -149 -42 -218 0 -7 180 -10 524 -10 289 0 528 -3 531 -8 3 -4 0
-40 -7 -80 -7 -39 -15 -91 -18 -114 -14 -107 -75 -125 -334 -98 -34 3 -66 4
-71 1 -5 -3 0 -41 9 -83 10 -43 21 -93 23 -111 3 -19 7 -36 9 -38 2 -2 81 -6
175 -10 189 -7 276 3 336 39 79 49 117 133 132 291 2 17 6 56 9 86 7 65 12
115 21 230 4 47 8 90 8 95 1 7 -177 11 -514 13 l-516 2 12 66 c7 36 15 68 18
71 3 3 285 5 627 6 l620 0 0 108 0 107 -920 1 -920 0 0 -109z"/>
<path d="M164 2062 l-41 -3 1 -103 0 -104 3043 0 3043 0 0 104 0 104 -32 1
c-135 2 -5982 3 -6014 1z"/>
</g>
</svg>
